<mxfile host="app.diagrams.net" modified="2024-04-17T18:39:19.853Z" agent="Mozilla/5.0 (Macintosh; Intel Mac OS X 10_15_7) AppleWebKit/605.1.15 (KHTML, like Gecko) Version/17.4.1 Safari/605.1.15" version="24.2.5" etag="UDpMUpoEVNIzVbg9o7Ca" type="github">
  <diagram name="Page-1" id="Awwk-M8b67GXE6aZJrmu">
    <mxGraphModel>
      <root>
        <mxCell id="0" />
        <mxCell id="1" parent="0" />
      </root>
    </mxGraphModel>
  </diagram>
</mxfile>
